STARTFONT 2.1
FONT -FontForge-Public Pixel-Book-R-Normal--24-240-75-75-C-240-ISO10646-1
SIZE 24 75 75
FONTBOUNDINGBOX 24 22 0 0
COMMENT "Generated by fontforge, http://fontforge.sourceforge.net"
STARTPROPERTIES 32
FOUNDRY "FontForge"
FAMILY_NAME "Public Pixel"
WEIGHT_NAME "Book"
SLANT "R"
SETWIDTH_NAME "Normal"
ADD_STYLE_NAME ""
PIXEL_SIZE 24
POINT_SIZE 240
RESOLUTION_X 75
RESOLUTION_Y 75
SPACING "C"
AVERAGE_WIDTH 240
CHARSET_REGISTRY "ISO10646"
CHARSET_ENCODING "1"
FONTNAME_REGISTRY ""
CHARSET_COLLECTIONS "ISO10646-1"
FONT_NAME "PublicPixel"
FACE_NAME "Public Pixel"
COPYRIGHT "Generated by fontforge, http://fontforge.sourceforge.net"
FONT_VERSION "001.000"
FONT_ASCENT 24
FONT_DESCENT 0
UNDERLINE_POSITION 0
UNDERLINE_THICKNESS 2
X_HEIGHT 15
CAP_HEIGHT 21
RAW_ASCENT 1000
RAW_DESCENT 0
NORM_SPACE 24
FIGURE_WIDTH 24
AVG_LOWERCASE_WIDTH 240
AVG_UPPERCASE_WIDTH 240
ENDPROPERTIES
CHARS 96
STARTCHAR space
ENCODING 32
SWIDTH 1000 0
DWIDTH 24 0
BBX 1 1 3 0
BITMAP
00
ENDCHAR
STARTCHAR exclam
ENCODING 33
SWIDTH 1000 0
DWIDTH 24 0
BBX 12 22 4 0
BITMAP
3FC0
3FC0
3FC0
3FC0
FFF0
FFF0
FFF0
FFF0
FFF0
FFF0
FFF0
FFF0
3FC0
3FC0
3FC0
3FC0
0000
0000
3FC0
3FC0
3FC0
3FC0
ENDCHAR
STARTCHAR quotedbl
ENCODING 34
SWIDTH 1000 0
DWIDTH 24 0
BBX 14 12 4 8
BITMAP
FCFC
FCFC
FCFC
FCFC
FCFC
FCFC
3C3C
3C3C
FCFC
FCFC
F0F0
F0F0
ENDCHAR
STARTCHAR numbersign
ENCODING 35
SWIDTH 1000 0
DWIDTH 24 0
BBX 20 22 0 0
BITMAP
3F0FC0
3F0FC0
3F0FC0
3F0FC0
FFFFF0
FFFFF0
3F0FC0
3F0FC0
3F0FC0
3F0FC0
3F0FC0
3F0FC0
3F0FC0
3F0FC0
3F0FC0
3F0FC0
FFFFF0
FFFFF0
3F0FC0
3F0FC0
3F0FC0
3F0FC0
ENDCHAR
STARTCHAR dollar
ENCODING 36
SWIDTH 1000 0
DWIDTH 24 0
BBX 20 22 0 0
BITMAP
00F000
00F000
3FFFF0
3FFFF0
FCF000
FCF000
FCF000
FCF000
FCF000
FCF000
3FFFC0
3FFFC0
00F3F0
00F3F0
00F3F0
00F3F0
00F3F0
00F3F0
FFFFC0
FFFFC0
00F000
00F000
ENDCHAR
STARTCHAR percent
ENCODING 37
SWIDTH 1000 0
DWIDTH 24 0
BBX 24 20 0 2
BITMAP
3F003C
3F003C
F3C0FC
F3C0FC
F3C3F0
F3C3F0
3F0FC0
3F0FC0
003F00
003F00
00FC00
00FC00
03F0FC
03F0FC
0FC3CF
0FC3CF
3F03CF
3F03CF
3C00FC
3C00FC
ENDCHAR
STARTCHAR ampersand
ENCODING 38
SWIDTH 1000 0
DWIDTH 24 0
BBX 22 22 0 0
BITMAP
3FF000
3FF000
FC3C00
FC3C00
FC3C00
FC3C00
3FF000
3FF000
FFFCFC
FFFCFC
FC3CFC
FC3CFC
FC0FF0
FC0FF0
FC03F0
FC03F0
FC00F0
FC00F0
FF00F0
FF00F0
3FFFC0
3FFFC0
ENDCHAR
STARTCHAR quotesingle
ENCODING 39
SWIDTH 1000 0
DWIDTH 24 0
BBX 6 12 6 8
BITMAP
FC
FC
FC
FC
FC
FC
3C
3C
FC
FC
F0
F0
ENDCHAR
STARTCHAR parenleft
ENCODING 40
SWIDTH 1000 0
DWIDTH 24 0
BBX 14 22 4 0
BITMAP
03FC
03FC
3F00
3F00
3F00
3F00
FC00
FC00
FC00
FC00
FC00
FC00
FC00
FC00
FC00
FC00
3F00
3F00
3F00
3F00
03FC
03FC
ENDCHAR
STARTCHAR parenright
ENCODING 41
SWIDTH 1000 0
DWIDTH 24 0
BBX 14 22 4 0
BITMAP
FF00
FF00
03F0
03F0
03F0
03F0
00FC
00FC
00FC
00FC
00FC
00FC
00FC
00FC
00FC
00FC
03F0
03F0
03F0
03F0
FF00
FF00
ENDCHAR
STARTCHAR asterisk
ENCODING 42
SWIDTH 1000 0
DWIDTH 24 0
BBX 14 10 4 12
BITMAP
FCFC
FCFC
FCFC
FCFC
3FF0
3FF0
FCFC
FCFC
FCFC
FCFC
ENDCHAR
STARTCHAR plus
ENCODING 43
SWIDTH 1000 0
DWIDTH 24 0
BBX 16 16 4 0
BITMAP
03C0
03C0
03C0
03C0
03C0
03C0
FFFF
FFFF
FFFF
FFFF
03C0
03C0
03C0
03C0
03C0
03C0
ENDCHAR
STARTCHAR comma
ENCODING 44
SWIDTH 1000 0
DWIDTH 24 0
BBX 6 12 6 0
BITMAP
FC
FC
FC
FC
FC
FC
0C
0C
FC
FC
F0
F0
ENDCHAR
STARTCHAR hyphen
ENCODING 45
SWIDTH 1000 0
DWIDTH 24 0
BBX 14 4 4 6
BITMAP
FFFC
FFFC
FFFC
FFFC
ENDCHAR
STARTCHAR period
ENCODING 46
SWIDTH 1000 0
DWIDTH 24 0
BBX 6 6 6 0
BITMAP
FC
FC
FC
FC
FC
FC
ENDCHAR
STARTCHAR slash
ENCODING 47
SWIDTH 1000 0
DWIDTH 24 0
BBX 20 20 2 2
BITMAP
0000F0
0000F0
0003F0
0003F0
000FC0
000FC0
003F00
003F00
00FC00
00FC00
03F000
03F000
0FC000
0FC000
3F0000
3F0000
FC0000
FC0000
F00000
F00000
ENDCHAR
STARTCHAR zero
ENCODING 48
SWIDTH 1000 0
DWIDTH 24 0
BBX 22 22 0 0
BITMAP
0FFFC0
0FFFC0
0C0FC0
0C0FC0
FC00FC
FC00FC
FC00FC
FC00FC
FC00FC
FC00FC
FC00FC
FC00FC
FC00FC
FC00FC
FC00FC
FC00FC
FC00FC
FC00FC
0FC0C0
0FC0C0
0FFFC0
0FFFC0
ENDCHAR
STARTCHAR one
ENCODING 49
SWIDTH 1000 0
DWIDTH 24 0
BBX 20 22 2 0
BITMAP
FFF000
FFF000
03F000
03F000
03F000
03F000
03F000
03F000
03F000
03F000
03F000
03F000
03F000
03F000
03F000
03F000
03F000
03F000
03F000
03F000
FFFFF0
FFFFF0
ENDCHAR
STARTCHAR two
ENCODING 50
SWIDTH 1000 0
DWIDTH 24 0
BBX 22 22 0 0
BITMAP
0FFFF0
0FFFF0
0C00FC
0C00FC
FC00FC
FC00FC
0003F0
0003F0
0003F0
0003F0
00FF00
00FF00
0FC000
0FC000
0FC000
0FC000
FC0000
FC0000
FC0000
FC0000
FFFFFC
FFFFFC
ENDCHAR
STARTCHAR three
ENCODING 51
SWIDTH 1000 0
DWIDTH 24 0
BBX 22 22 0 0
BITMAP
0FFFF0
0FFFF0
FC00FC
FC00FC
0000FC
0000FC
0000FC
0000FC
0000F0
0000F0
00FFF0
00FFF0
0000FC
0000FC
0000FC
0000FC
FC00FC
FC00FC
0C00F0
0C00F0
0FFFF0
0FFFF0
ENDCHAR
STARTCHAR four
ENCODING 52
SWIDTH 1000 0
DWIDTH 24 0
BBX 22 22 0 0
BITMAP
003FFC
003FFC
00F0FC
00F0FC
03C0FC
03C0FC
0F00FC
0F00FC
FC00FC
FC00FC
FC00FC
FC00FC
FFFFFC
FFFFFC
0000FC
0000FC
0000FC
0000FC
0000FC
0000FC
0000FC
0000FC
ENDCHAR
STARTCHAR five
ENCODING 53
SWIDTH 1000 0
DWIDTH 24 0
BBX 22 22 0 0
BITMAP
FFFFFC
FFFFFC
FC0000
FC0000
FC0000
FC0000
FFFFF0
FFFFF0
0000FC
0000FC
0000FC
0000FC
0000FC
0000FC
0000FC
0000FC
FC00FC
FC00FC
0C00F0
0C00F0
0FFFF0
0FFFF0
ENDCHAR
STARTCHAR six
ENCODING 54
SWIDTH 1000 0
DWIDTH 24 0
BBX 22 22 0 0
BITMAP
0FFFF0
0FFFF0
0C00F0
0C00F0
FC00FC
FC00FC
FC0000
FC0000
FC0000
FC0000
FFFFF0
FFFFF0
FC00FC
FC00FC
FC00FC
FC00FC
FC00FC
FC00FC
0C00F0
0C00F0
0FFFF0
0FFFF0
ENDCHAR
STARTCHAR seven
ENCODING 55
SWIDTH 1000 0
DWIDTH 24 0
BBX 22 22 0 0
BITMAP
FFFFFC
FFFFFC
FC00FC
FC00FC
FC00FC
FC00FC
000FF0
000FF0
000FC0
000FC0
00FC00
00FC00
00FC00
00FC00
0FC000
0FC000
0FC000
0FC000
FC0000
FC0000
FC0000
FC0000
ENDCHAR
STARTCHAR eight
ENCODING 56
SWIDTH 1000 0
DWIDTH 24 0
BBX 22 22 0 0
BITMAP
3FFFF0
3FFFF0
FC00FC
FC00FC
FC00FC
FC00FC
FC00FC
FC00FC
3C00F0
3C00F0
0FFFC0
0FFFC0
3C00F0
3C00F0
FC00FC
FC00FC
FC00FC
FC00FC
FC00FC
FC00FC
3FFFF0
3FFFF0
ENDCHAR
STARTCHAR nine
ENCODING 57
SWIDTH 1000 0
DWIDTH 24 0
BBX 22 22 0 0
BITMAP
0FFFF0
0FFFF0
3C00FC
3C00FC
FC00FC
FC00FC
FC00FC
FC00FC
3C00FC
3C00FC
0FFFFC
0FFFFC
0000FC
0000FC
0000FC
0000FC
FC00FC
FC00FC
0C00F0
0C00F0
0FFFF0
0FFFF0
ENDCHAR
STARTCHAR colon
ENCODING 58
SWIDTH 1000 0
DWIDTH 24 0
BBX 6 14 6 2
BITMAP
FC
FC
FC
FC
FC
FC
00
00
FC
FC
FC
FC
FC
FC
ENDCHAR
STARTCHAR semicolon
ENCODING 59
SWIDTH 1000 0
DWIDTH 24 0
BBX 6 14 6 2
BITMAP
FC
FC
FC
FC
FC
FC
00
00
FC
FC
FC
FC
3C
3C
ENDCHAR
STARTCHAR less
ENCODING 60
SWIDTH 1000 0
DWIDTH 24 0
BBX 14 14 4 2
BITMAP
03FC
03FC
0FF0
0FF0
3FC0
3FC0
FF00
FF00
3FC0
3FC0
0FF0
0FF0
03FC
03FC
ENDCHAR
STARTCHAR equal
ENCODING 61
SWIDTH 1000 0
DWIDTH 24 0
BBX 14 10 4 4
BITMAP
FFFC
FFFC
FFFC
FFFC
0000
0000
FFFC
FFFC
FFFC
FFFC
ENDCHAR
STARTCHAR greater
ENCODING 62
SWIDTH 1000 0
DWIDTH 24 0
BBX 14 14 6 2
BITMAP
FF00
FF00
3FC0
3FC0
0FF0
0FF0
03FC
03FC
0FF0
0FF0
3FC0
3FC0
FF00
FF00
ENDCHAR
STARTCHAR question
ENCODING 63
SWIDTH 1000 0
DWIDTH 24 0
BBX 20 22 0 0
BITMAP
0FFF00
0FFF00
FFFFF0
FFFFF0
FC00F0
FC00F0
0000F0
0000F0
000FF0
000FF0
03FF00
03FF00
03F000
03F000
000000
000000
000000
000000
03F000
03F000
03F000
03F000
ENDCHAR
STARTCHAR at
ENCODING 64
SWIDTH 1000 0
DWIDTH 24 0
BBX 20 22 0 0
BITMAP
0FFF00
0FFF00
FFFFF0
FFFFF0
FC00F0
FC00F0
FCF0F0
FCF0F0
FCF0F0
FCF0F0
FCF0F0
FCF0F0
FCFFF0
FCFFF0
FC3F00
FC3F00
FC0000
FC0000
FFFFC0
FFFFC0
0FFFC0
0FFFC0
ENDCHAR
STARTCHAR A
ENCODING 65
SWIDTH 1000 0
DWIDTH 24 0
BBX 20 22 0 0
BITMAP
03FC00
03FC00
3F0FC0
3F0FC0
3F0FC0
3F0FC0
FC03F0
FC03F0
FC03F0
FC03F0
FC03F0
FC03F0
FFFFF0
FFFFF0
FC03F0
FC03F0
FC03F0
FC03F0
FC03F0
FC03F0
FC03F0
FC03F0
ENDCHAR
STARTCHAR B
ENCODING 66
SWIDTH 1000 0
DWIDTH 24 0
BBX 22 22 0 0
BITMAP
FFFFF0
FFFFF0
FC00FC
FC00FC
FC00FC
FC00FC
FC00FC
FC00FC
FC00F0
FC00F0
FFFFF0
FFFFF0
FC00FC
FC00FC
FC00FC
FC00FC
FC00FC
FC00FC
FC00F0
FC00F0
FFFFF0
FFFFF0
ENDCHAR
STARTCHAR C
ENCODING 67
SWIDTH 1000 0
DWIDTH 24 0
BBX 22 22 0 0
BITMAP
0FFFF0
0FFFF0
0C00F0
0C00F0
FC00F0
FC00F0
FC00FC
FC00FC
FC0000
FC0000
FC0000
FC0000
FC0000
FC0000
FC0000
FC0000
FC00FC
FC00FC
0C00F0
0C00F0
0FFFF0
0FFFF0
ENDCHAR
STARTCHAR D
ENCODING 68
SWIDTH 1000 0
DWIDTH 24 0
BBX 22 22 0 0
BITMAP
FFFF00
FFFF00
FC03F0
FC03F0
FC03F0
FC03F0
FC00FC
FC00FC
FC00FC
FC00FC
FC00FC
FC00FC
FC00FC
FC00FC
FC00FC
FC00FC
FC03F0
FC03F0
FC03F0
FC03F0
FFFF00
FFFF00
ENDCHAR
STARTCHAR E
ENCODING 69
SWIDTH 1000 0
DWIDTH 24 0
BBX 22 22 0 0
BITMAP
FFFFFC
FFFFFC
FC0000
FC0000
FC0000
FC0000
FC0000
FC0000
FC0000
FC0000
FFFF00
FFFF00
FC0000
FC0000
FC0000
FC0000
FC0000
FC0000
FC0000
FC0000
FFFFFC
FFFFFC
ENDCHAR
STARTCHAR F
ENCODING 70
SWIDTH 1000 0
DWIDTH 24 0
BBX 22 22 0 0
BITMAP
FFFFFC
FFFFFC
FC0000
FC0000
FC0000
FC0000
FC0000
FC0000
FC0000
FC0000
FFFF00
FFFF00
FC0000
FC0000
FC0000
FC0000
FC0000
FC0000
FC0000
FC0000
FC0000
FC0000
ENDCHAR
STARTCHAR G
ENCODING 71
SWIDTH 1000 0
DWIDTH 24 0
BBX 22 22 0 0
BITMAP
3FFFFC
3FFFFC
FC0000
FC0000
FC0000
FC0000
FC0000
FC0000
FC0000
FC0000
FC3FFC
FC3FFC
FC00FC
FC00FC
FC00FC
FC00FC
FC00FC
FC00FC
3FFFFC
3FFFFC
3FFFFC
3FFFFC
ENDCHAR
STARTCHAR H
ENCODING 72
SWIDTH 1000 0
DWIDTH 24 0
BBX 22 22 0 0
BITMAP
FC00FC
FC00FC
FC00FC
FC00FC
FC00FC
FC00FC
FC00FC
FC00FC
FC00FC
FC00FC
FFFFFC
FFFFFC
FC00FC
FC00FC
FC00FC
FC00FC
FC00FC
FC00FC
FC00FC
FC00FC
FC00FC
FC00FC
ENDCHAR
STARTCHAR I
ENCODING 73
SWIDTH 1000 0
DWIDTH 24 0
BBX 20 22 2 0
BITMAP
FFFFF0
FFFFF0
03F000
03F000
03F000
03F000
03F000
03F000
03F000
03F000
03F000
03F000
03F000
03F000
03F000
03F000
03F000
03F000
03F000
03F000
FFFFF0
FFFFF0
ENDCHAR
STARTCHAR J
ENCODING 74
SWIDTH 1000 0
DWIDTH 24 0
BBX 22 22 0 0
BITMAP
00FFFC
00FFFC
0000FC
0000FC
0000FC
0000FC
0000FC
0000FC
0000FC
0000FC
0000FC
0000FC
FC00FC
FC00FC
FC00FC
FC00FC
FC00FC
FC00FC
0C00F0
0C00F0
0FFFF0
0FFFF0
ENDCHAR
STARTCHAR K
ENCODING 75
SWIDTH 1000 0
DWIDTH 24 0
BBX 22 22 0 0
BITMAP
FC00FC
FC00FC
FC03F0
FC03F0
FC03F0
FC03F0
FC3F00
FC3F00
FC3F00
FC3F00
FFFC00
FFFC00
FC3F00
FC3F00
FC3F00
FC3F00
FC03F0
FC03F0
FC03F0
FC03F0
FC00FC
FC00FC
ENDCHAR
STARTCHAR L
ENCODING 76
SWIDTH 1000 0
DWIDTH 24 0
BBX 22 22 0 0
BITMAP
FC0000
FC0000
FC0000
FC0000
FC0000
FC0000
FC0000
FC0000
FC0000
FC0000
FC0000
FC0000
FC0000
FC0000
FC0000
FC0000
FC0000
FC0000
FC0000
FC0000
FFFFFC
FFFFFC
ENDCHAR
STARTCHAR M
ENCODING 77
SWIDTH 1000 0
DWIDTH 24 0
BBX 22 22 0 0
BITMAP
FF03FC
FF03FC
FF03FC
FF03FC
FF03FC
FF03FC
FFCFFC
FFCFFC
FFCFFC
FFCFFC
FFFFFC
FFFFFC
FCFCFC
FCFCFC
FCFCFC
FCFCFC
FC00FC
FC00FC
FC00FC
FC00FC
FC00FC
FC00FC
ENDCHAR
STARTCHAR N
ENCODING 78
SWIDTH 1000 0
DWIDTH 24 0
BBX 22 22 0 0
BITMAP
FC00FC
FC00FC
FC00FC
FC00FC
FFC0FC
FFC0FC
FFC0FC
FFC0FC
FFF0FC
FFF0FC
FC30FC
FC30FC
FC3FFC
FC3FFC
FC0FFC
FC0FFC
FC0FFC
FC0FFC
FC00FC
FC00FC
FC00FC
FC00FC
ENDCHAR
STARTCHAR O
ENCODING 79
SWIDTH 1000 0
DWIDTH 24 0
BBX 22 22 0 0
BITMAP
3FFFF0
3FFFF0
3C00F0
3C00F0
FC00FC
FC00FC
FC00FC
FC00FC
FC00FC
FC00FC
FC00FC
FC00FC
FC00FC
FC00FC
FC00FC
FC00FC
FC00FC
FC00FC
3C00F0
3C00F0
3FFFF0
3FFFF0
ENDCHAR
STARTCHAR P
ENCODING 80
SWIDTH 1000 0
DWIDTH 24 0
BBX 22 22 0 0
BITMAP
FFFFF0
FFFFF0
FC00FC
FC00FC
FC00FC
FC00FC
FC00FC
FC00FC
FC00FC
FC00FC
FFFFF0
FFFFF0
FC0000
FC0000
FC0000
FC0000
FC0000
FC0000
FC0000
FC0000
FC0000
FC0000
ENDCHAR
STARTCHAR Q
ENCODING 81
SWIDTH 1000 0
DWIDTH 24 0
BBX 22 22 0 0
BITMAP
3FFFF0
3FFFF0
3C00F0
3C00F0
FC00FC
FC00FC
FC00FC
FC00FC
FC00FC
FC00FC
FC00FC
FC00FC
FC3CFC
FC3CFC
FC3FFC
FC3FFC
FC0FC0
FC0FC0
3C0FFC
3C0FFC
3FFCFC
3FFCFC
ENDCHAR
STARTCHAR R
ENCODING 82
SWIDTH 1000 0
DWIDTH 24 0
BBX 22 22 0 0
BITMAP
FFFFF0
FFFFF0
FC00FC
FC00FC
FC00FC
FC00FC
FC00FC
FC00FC
FC00F0
FC00F0
FFFFF0
FFFFF0
FC3F00
FC3F00
FC3F00
FC3F00
FC03F0
FC03F0
FC03F0
FC03F0
FC00FC
FC00FC
ENDCHAR
STARTCHAR S
ENCODING 83
SWIDTH 1000 0
DWIDTH 24 0
BBX 22 22 0 0
BITMAP
0FFFF0
0FFFF0
FC00FC
FC00FC
FC0000
FC0000
FC0000
FC0000
0C0000
0C0000
0FFFF0
0FFFF0
0000FC
0000FC
0000FC
0000FC
FC00FC
FC00FC
3C00F0
3C00F0
3FFFF0
3FFFF0
ENDCHAR
STARTCHAR T
ENCODING 84
SWIDTH 1000 0
DWIDTH 24 0
BBX 20 22 2 0
BITMAP
FFFFF0
FFFFF0
03F000
03F000
03F000
03F000
03F000
03F000
03F000
03F000
03F000
03F000
03F000
03F000
03F000
03F000
03F000
03F000
03F000
03F000
03F000
03F000
ENDCHAR
STARTCHAR U
ENCODING 85
SWIDTH 1000 0
DWIDTH 24 0
BBX 22 22 0 0
BITMAP
FC00FC
FC00FC
FC00FC
FC00FC
FC00FC
FC00FC
FC00FC
FC00FC
FC00FC
FC00FC
FC00FC
FC00FC
FC00FC
FC00FC
FC00FC
FC00FC
FC00FC
FC00FC
3C00F0
3C00F0
3FFFF0
3FFFF0
ENDCHAR
STARTCHAR V
ENCODING 86
SWIDTH 1000 0
DWIDTH 24 0
BBX 22 22 0 0
BITMAP
FC00FC
FC00FC
FC00FC
FC00FC
FC00FC
FC00FC
FC00FC
FC00FC
FC00FC
FC00FC
FC00FC
FC00FC
3F03F0
3F03F0
3F03F0
3F03F0
03FF00
03FF00
00FC00
00FC00
00FC00
00FC00
ENDCHAR
STARTCHAR W
ENCODING 87
SWIDTH 1000 0
DWIDTH 24 0
BBX 22 22 0 0
BITMAP
FC00FC
FC00FC
FC00FC
FC00FC
FC00FC
FC00FC
FCFCFC
FCFCFC
FCFCFC
FCFCFC
FFFFFC
FFFFFC
FFCFFC
FFCFFC
FFCFFC
FFCFFC
FC00FC
FC00FC
FC00FC
FC00FC
FC00FC
FC00FC
ENDCHAR
STARTCHAR X
ENCODING 88
SWIDTH 1000 0
DWIDTH 24 0
BBX 22 22 0 0
BITMAP
FC00FC
FC00FC
FC00FC
FC00FC
FFCFFC
FFCFFC
0FFFC0
0FFFC0
0FFFC0
0FFFC0
03FF00
03FF00
0FFFC0
0FFFC0
0FFFC0
0FFFC0
FFCFFC
FFCFFC
FC00FC
FC00FC
FC00FC
FC00FC
ENDCHAR
STARTCHAR Y
ENCODING 89
SWIDTH 1000 0
DWIDTH 24 0
BBX 18 22 2 0
BITMAP
FC0FC0
FC0FC0
FC0FC0
FC0FC0
FC0FC0
FC0FC0
FC0FC0
FC0FC0
FC0FC0
FC0FC0
0FFC00
0FFC00
0FFC00
0FFC00
03F000
03F000
03F000
03F000
03F000
03F000
03F000
03F000
ENDCHAR
STARTCHAR Z
ENCODING 90
SWIDTH 1000 0
DWIDTH 24 0
BBX 22 22 0 0
BITMAP
FFFFFC
FFFFFC
0003FC
0003FC
0003FC
0003FC
003FF0
003FF0
003FF0
003FF0
03FF00
03FF00
3FF000
3FF000
3FF000
3FF000
FF0000
FF0000
FF0000
FF0000
FFFFFC
FFFFFC
ENDCHAR
STARTCHAR bracketleft
ENCODING 91
SWIDTH 1000 0
DWIDTH 24 0
BBX 16 22 4 0
BITMAP
FFFF
FFFF
FC00
FC00
FC00
FC00
FC00
FC00
FC00
FC00
FC00
FC00
FC00
FC00
FC00
FC00
FC00
FC00
FC00
FC00
FFFF
FFFF
ENDCHAR
STARTCHAR backslash
ENCODING 92
SWIDTH 1000 0
DWIDTH 24 0
BBX 20 20 2 2
BITMAP
F00000
F00000
FC0000
FC0000
3F0000
3F0000
0FC000
0FC000
03F000
03F000
00FC00
00FC00
003F00
003F00
000FC0
000FC0
0003F0
0003F0
0000F0
0000F0
ENDCHAR
STARTCHAR bracketright
ENCODING 93
SWIDTH 1000 0
DWIDTH 24 0
BBX 16 22 4 0
BITMAP
FFFF
FFFF
003F
003F
003F
003F
003F
003F
003F
003F
003F
003F
003F
003F
003F
003F
003F
003F
003F
003F
FFFF
FFFF
ENDCHAR
STARTCHAR asciicircum
ENCODING 94
SWIDTH 1000 0
DWIDTH 24 0
BBX 20 12 0 8
BITMAP
00F000
00F000
03FC00
03FC00
0FFF00
0FFF00
3F0FC0
3F0FC0
FC03F0
FC03F0
F000F0
F000F0
ENDCHAR
STARTCHAR underscore
ENCODING 95
SWIDTH 1000 0
DWIDTH 24 0
BBX 20 4 0 0
BITMAP
FFFFF0
FFFFF0
FFFFF0
FFFFF0
ENDCHAR
STARTCHAR grave
ENCODING 96
SWIDTH 1000 0
DWIDTH 24 0
BBX 6 6 6 16
BITMAP
F0
F0
FC
FC
3C
3C
ENDCHAR
STARTCHAR a
ENCODING 97
SWIDTH 1000 0
DWIDTH 24 0
BBX 22 16 0 0
BITMAP
3FFFF0
3FFFF0
0000F0
0000F0
0000FC
0000FC
3FFFFC
3FFFFC
F000FC
F000FC
F000FC
F000FC
F000FC
F000FC
3FFFFC
3FFFFC
ENDCHAR
STARTCHAR b
ENCODING 98
SWIDTH 1000 0
DWIDTH 24 0
BBX 22 22 0 0
BITMAP
FC0000
FC0000
FC0000
FC0000
FC0000
FC0000
FFFFF0
FFFFF0
FC00F0
FC00F0
FC00FC
FC00FC
FC00FC
FC00FC
FC00FC
FC00FC
FC00FC
FC00FC
FC00FC
FC00FC
FFFFF0
FFFFF0
ENDCHAR
STARTCHAR c
ENCODING 99
SWIDTH 1000 0
DWIDTH 24 0
BBX 22 16 0 0
BITMAP
0FFFF0
0FFFF0
0C00F0
0C00F0
FC00FC
FC00FC
FC0000
FC0000
FC0000
FC0000
FC00FC
FC00FC
0C00F0
0C00F0
0FFFF0
0FFFF0
ENDCHAR
STARTCHAR d
ENCODING 100
SWIDTH 1000 0
DWIDTH 24 0
BBX 20 22 0 0
BITMAP
0003F0
0003F0
0003F0
0003F0
0003F0
0003F0
3FFFF0
3FFFF0
3C03F0
3C03F0
FC03F0
FC03F0
FC03F0
FC03F0
FC03F0
FC03F0
FC03F0
FC03F0
FC03F0
FC03F0
3FFFF0
3FFFF0
ENDCHAR
STARTCHAR e
ENCODING 101
SWIDTH 1000 0
DWIDTH 24 0
BBX 22 16 0 0
BITMAP
0FFFF0
0FFFF0
0C00F0
0C00F0
FC00FC
FC00FC
FFFFFC
FFFFFC
FC0000
FC0000
FC0000
FC0000
FC0000
FC0000
0FFFF0
0FFFF0
ENDCHAR
STARTCHAR f
ENCODING 102
SWIDTH 1000 0
DWIDTH 24 0
BBX 22 22 0 0
BITMAP
03FFC0
03FFC0
03F000
03F000
03F000
03F000
FFFFFC
FFFFFC
03F000
03F000
03F000
03F000
03F000
03F000
03F000
03F000
03F000
03F000
03F000
03F000
03F000
03F000
ENDCHAR
STARTCHAR g
ENCODING 103
SWIDTH 1000 0
DWIDTH 24 0
BBX 22 16 0 0
BITMAP
3FFFFC
3FFFFC
F000FC
F000FC
F000FC
F000FC
3FFFFC
3FFFFC
0000FC
0000FC
0000FC
0000FC
0000FC
0000FC
3FFFF0
3FFFF0
ENDCHAR
STARTCHAR h
ENCODING 104
SWIDTH 1000 0
DWIDTH 24 0
BBX 22 22 0 0
BITMAP
FC0000
FC0000
FC0000
FC0000
FC0000
FC0000
FFFFF0
FFFFF0
FC00FC
FC00FC
FC00FC
FC00FC
FC00FC
FC00FC
FC00FC
FC00FC
FC00FC
FC00FC
FC00FC
FC00FC
FC00FC
FC00FC
ENDCHAR
STARTCHAR i
ENCODING 105
SWIDTH 1000 0
DWIDTH 24 0
BBX 22 22 0 0
BITMAP
003F00
003F00
003F00
003F00
000000
000000
0FFF00
0FFF00
003F00
003F00
003F00
003F00
003F00
003F00
003F00
003F00
003F00
003F00
003F00
003F00
FFFFFC
FFFFFC
ENDCHAR
STARTCHAR j
ENCODING 106
SWIDTH 1000 0
DWIDTH 24 0
BBX 22 22 0 0
BITMAP
0000FC
0000FC
0000FC
0000FC
000000
000000
000000
000000
0000FC
0000FC
0000FC
0000FC
0000FC
0000FC
0000FC
0000FC
FC00FC
FC00FC
0C00F0
0C00F0
0FFFF0
0FFFF0
ENDCHAR
STARTCHAR k
ENCODING 107
SWIDTH 1000 0
DWIDTH 24 0
BBX 22 22 0 0
BITMAP
FC0000
FC0000
FC0000
FC0000
FC00FC
FC00FC
FC00F0
FC00F0
FC0FF0
FC0FF0
FC0F00
FC0F00
FFFF00
FFFF00
FC0F00
FC0F00
FC0FF0
FC0FF0
FC0FF0
FC0FF0
FC00FC
FC00FC
ENDCHAR
STARTCHAR l
ENCODING 108
SWIDTH 1000 0
DWIDTH 24 0
BBX 22 22 0 0
BITMAP
FC0000
FC0000
FC0000
FC0000
FC0000
FC0000
FC0000
FC0000
FC0000
FC0000
FC0000
FC0000
FC0000
FC0000
FC0000
FC0000
3FF000
3FF000
3FF000
3FF000
003FFC
003FFC
ENDCHAR
STARTCHAR m
ENCODING 109
SWIDTH 1000 0
DWIDTH 24 0
BBX 22 16 0 0
BITMAP
FFFFF0
FFFFF0
FC30F0
FC30F0
FC30FC
FC30FC
FC30FC
FC30FC
FC30FC
FC30FC
FC30FC
FC30FC
FC30FC
FC30FC
FC30FC
FC30FC
ENDCHAR
STARTCHAR n
ENCODING 110
SWIDTH 1000 0
DWIDTH 24 0
BBX 22 16 0 0
BITMAP
FFFFF0
FFFFF0
FC00F0
FC00F0
FC00FC
FC00FC
FC00FC
FC00FC
FC00FC
FC00FC
FC00FC
FC00FC
FC00FC
FC00FC
FC00FC
FC00FC
ENDCHAR
STARTCHAR o
ENCODING 111
SWIDTH 1000 0
DWIDTH 24 0
BBX 22 16 0 0
BITMAP
3FFFF0
3FFFF0
3C00F0
3C00F0
FC00FC
FC00FC
FC00FC
FC00FC
FC00FC
FC00FC
FC00FC
FC00FC
FC00FC
FC00FC
3FFFF0
3FFFF0
ENDCHAR
STARTCHAR p
ENCODING 112
SWIDTH 1000 0
DWIDTH 24 0
BBX 20 16 0 0
BITMAP
FFFFC0
FFFFC0
FC00F0
FC00F0
FC00F0
FC00F0
FFFFC0
FFFFC0
FC0000
FC0000
FC0000
FC0000
FC0000
FC0000
FC0000
FC0000
ENDCHAR
STARTCHAR q
ENCODING 113
SWIDTH 1000 0
DWIDTH 24 0
BBX 20 16 0 0
BITMAP
3FFFF0
3FFFF0
F003F0
F003F0
F003F0
F003F0
F003F0
F003F0
3FFFF0
3FFFF0
0003F0
0003F0
0003F0
0003F0
0003F0
0003F0
ENDCHAR
STARTCHAR r
ENCODING 114
SWIDTH 1000 0
DWIDTH 24 0
BBX 20 16 0 0
BITMAP
FCFFC0
FCFFC0
FCFFC0
FCFFC0
FFC0F0
FFC0F0
FFC0F0
FFC0F0
FC0000
FC0000
FC0000
FC0000
FC0000
FC0000
FC0000
FC0000
ENDCHAR
STARTCHAR s
ENCODING 115
SWIDTH 1000 0
DWIDTH 24 0
BBX 22 16 0 0
BITMAP
3FFFFC
3FFFFC
FC0000
FC0000
FC0000
FC0000
FFFFFC
FFFFFC
0000FC
0000FC
0000FC
0000FC
0000FC
0000FC
FFFFF0
FFFFF0
ENDCHAR
STARTCHAR t
ENCODING 116
SWIDTH 1000 0
DWIDTH 24 0
BBX 22 22 0 0
BITMAP
03F000
03F000
03F000
03F000
03F000
03F000
FFFFFC
FFFFFC
03F000
03F000
03F000
03F000
03F000
03F000
03F000
03F000
03F000
03F000
03F000
03F000
03FFFC
03FFFC
ENDCHAR
STARTCHAR u
ENCODING 117
SWIDTH 1000 0
DWIDTH 24 0
BBX 22 16 0 0
BITMAP
FC00FC
FC00FC
FC00FC
FC00FC
FC00FC
FC00FC
FC00FC
FC00FC
FC00FC
FC00FC
FC00FC
FC00FC
3C00F0
3C00F0
3FFFF0
3FFFF0
ENDCHAR
STARTCHAR v
ENCODING 118
SWIDTH 1000 0
DWIDTH 24 0
BBX 22 16 0 0
BITMAP
FC00FC
FC00FC
FC00FC
FC00FC
FC00FC
FC00FC
3F03F0
3F03F0
3F03F0
3F03F0
0FFFC0
0FFFC0
00FC00
00FC00
00FC00
00FC00
ENDCHAR
STARTCHAR w
ENCODING 119
SWIDTH 1000 0
DWIDTH 24 0
BBX 22 16 0 0
BITMAP
FC00FC
FC00FC
FC3CFC
FC3CFC
FC3CFC
FC3CFC
FC3CFC
FC3CFC
FC3CFC
FC3CFC
FFFFFC
FFFFFC
0FC3F0
0FC3F0
0FC3F0
0FC3F0
ENDCHAR
STARTCHAR x
ENCODING 120
SWIDTH 1000 0
DWIDTH 24 0
BBX 22 16 0 0
BITMAP
FF03FC
FF03FC
3F03F0
3F03F0
3FCFF0
3FCFF0
03FF00
03FF00
03FF00
03FF00
3FFFF0
3FFFF0
3FCFF0
3FCFF0
FF03FC
FF03FC
ENDCHAR
STARTCHAR y
ENCODING 121
SWIDTH 1000 0
DWIDTH 24 0
BBX 22 16 0 0
BITMAP
FC00FC
FC00FC
FC00FC
FC00FC
FC00FC
FC00FC
3F03F0
3F03F0
3F03F0
3F03F0
03FF00
03FF00
03FF00
03FF00
FFFC00
FFFC00
ENDCHAR
STARTCHAR z
ENCODING 122
SWIDTH 1000 0
DWIDTH 24 0
BBX 22 16 0 0
BITMAP
FFFFFC
FFFFFC
003FF0
003FF0
003FF0
003FF0
03FF00
03FF00
03FF00
03FF00
3FF000
3FF000
3FF000
3FF000
FFFFF0
FFFFF0
ENDCHAR
STARTCHAR braceleft
ENCODING 123
SWIDTH 1000 0
DWIDTH 24 0
BBX 16 22 2 0
BITMAP
00FF
00FF
00FF
00FF
0FC0
0FC0
0FC0
0FC0
0FC0
0FC0
FFC0
FFC0
FFC0
FFC0
0FC0
0FC0
0FC0
0FC0
00FF
00FF
00FF
00FF
ENDCHAR
STARTCHAR bar
ENCODING 124
SWIDTH 1000 0
DWIDTH 24 0
BBX 6 22 6 0
BITMAP
FC
FC
FC
FC
FC
FC
FC
FC
FC
FC
FC
FC
FC
FC
FC
FC
FC
FC
FC
FC
FC
FC
ENDCHAR
STARTCHAR braceright
ENCODING 125
SWIDTH 1000 0
DWIDTH 24 0
BBX 16 22 4 0
BITMAP
FF00
FF00
FF00
FF00
03F0
03F0
03F0
03F0
03F0
03F0
03FF
03FF
03FF
03FF
03F0
03F0
03F0
03F0
FF00
FF00
FF00
FF00
ENDCHAR
STARTCHAR asciitilde
ENCODING 126
SWIDTH 1000 0
DWIDTH 24 0
BBX 20 10 0 4
BITMAP
3FC3F0
3FC3F0
3FF3F0
3FF3F0
FCF3F0
FCF3F0
FCFFC0
FCFFC0
FC3FC0
FC3FC0
ENDCHAR
STARTCHAR uni2B1A
ENCODING 11034
SWIDTH 1000 0
DWIDTH 24 0
BBX 20 20 0 2
BITMAP
F3CC30
F3CC30
C30C30
C30C30
000000
000000
F00030
F00030
C00030
C00030
000000
000000
F00030
F00030
000000
000000
000000
000000
F3CC30
F3CC30
ENDCHAR
ENDFONT
